<svg width="1920" height="2078" viewBox="0 0 1920 2078" fill="none" xmlns="http://www.w3.org/2000/svg">
<g clip-path="url(#clip0_59_890)">
<rect width="1920" height="2078" fill="black"/>
<path d="M889.941 427.405C894.668 436.858 903.813 441.801 912.002 447.259" stroke="white" stroke-width="15" stroke-linecap="round"/>
<path d="M353.871 850.967V853.173" stroke="white" stroke-width="15" stroke-linecap="round"/>
<path d="M161.943 482.556L177.386 462.702" stroke="white" stroke-width="15" stroke-linecap="round"/>
<path d="M850.232 140.618C852.52 142.449 854.111 142.276 856.851 142.824" stroke="white" stroke-width="15" stroke-linecap="round"/>
<path d="M962.74 1248.06C971.695 1247.61 977.278 1243.62 984.801 1239.23" stroke="white" stroke-width="15" stroke-linecap="round"/>
<path d="M1154.67 513.441L1161.29 502.411" stroke="white" stroke-width="15" stroke-linecap="round"/>
<path d="M433.289 288.424L439.907 295.042" stroke="white" stroke-width="15" stroke-linecap="round"/>
<path d="M589.918 967.888C590.807 974.555 592.872 981.182 594.33 987.742" stroke="white" stroke-width="15" stroke-linecap="round"/>
<path d="M217.096 1027.45V1025.25" stroke="white" stroke-width="15" stroke-linecap="round"/>
<path d="M67.084 676.689C73.32 682.509 80.0791 687.101 86.9385 692.131" stroke="white" stroke-width="15" stroke-linecap="round"/>
<path d="M448.73 617.125C451.752 610.549 453.374 604.181 455.349 597.271" stroke="white" stroke-width="15" stroke-linecap="round"/>
<path d="M541.385 359.017C547.265 357.841 550.114 353.799 554.621 350.193" stroke="white" stroke-width="15" stroke-linecap="round"/>
<path d="M461.968 147.236H459.762" stroke="white" stroke-width="15" stroke-linecap="round"/>
<path d="M93.5566 195.77H95.7627" stroke="white" stroke-width="15" stroke-linecap="round"/>
<path d="M892.146 248.715L894.353 250.921" stroke="white" stroke-width="4" stroke-linecap="round"/>
<path d="M784.051 321.514V325.927" stroke="white" stroke-width="4" stroke-linecap="round"/>
<path d="M830.377 921.561C836.39 922.362 842.185 924.415 848.025 925.973" stroke="white" stroke-width="4" stroke-linecap="round"/>
<path d="M653.895 502.411C657.564 508.056 660.019 509.937 664.925 513.441" stroke="white" stroke-width="4" stroke-linecap="round"/>
<path d="M422.258 475.938H424.464" stroke="white" stroke-width="4" stroke-linecap="round"/>
<path d="M336.223 422.993C337.702 427.06 341.954 429.111 345.047 431.817" stroke="white" stroke-width="4" stroke-linecap="round"/>
<path d="M241.361 312.69C245.368 309.608 250.038 308.145 254.598 306.072" stroke="white" stroke-width="4" stroke-linecap="round"/>
<path d="M11.9316 981.124C15.7039 983.982 19.3339 986.925 22.9619 989.948" stroke="white" stroke-width="4" stroke-linecap="round"/>
<path d="M146.502 1139.96H153.12" stroke="white" stroke-width="4" stroke-linecap="round"/>
<path d="M459.762 1214.97L468.586 1212.76" stroke="white" stroke-width="4" stroke-linecap="round"/>
<path d="M600.949 1223.79C602.973 1227.03 608.863 1225.68 611.979 1226" stroke="white" stroke-width="4" stroke-linecap="round"/>
<path d="M810.523 1367.18H817.142" stroke="white" stroke-width="4" stroke-linecap="round"/>
<path d="M1092.9 1387.04C1101.79 1386.1 1110.58 1384.16 1119.37 1382.63" stroke="white" stroke-width="4" stroke-linecap="round"/>
<path d="M1300.27 1157.61C1302 1150.29 1303.29 1142.94 1304.68 1135.55" stroke="white" stroke-width="4" stroke-linecap="round"/>
<path d="M1302.47 1025.25L1304.68 1016.42" stroke="white" stroke-width="4" stroke-linecap="round"/>
<path d="M1344.39 758.313C1346.9 755.518 1347.92 753.031 1348.8 749.489" stroke="white" stroke-width="4" stroke-linecap="round"/>
<path d="M1370.86 528.883C1373.02 517.789 1371.28 506.985 1370.86 495.792" stroke="white" stroke-width="4" stroke-linecap="round"/>
<path d="M1273.79 376.666C1273.57 374.607 1272.68 373.898 1271.59 372.254" stroke="white" stroke-width="4" stroke-linecap="round"/>
<path d="M1225.26 264.157C1238.11 254.977 1256.77 251.448 1271.59 246.509" stroke="white" stroke-width="4" stroke-linecap="round"/>
<path d="M1390.71 202.388L1406.16 193.563" stroke="white" stroke-width="4" stroke-linecap="round"/>
<path d="M1090.69 343.575C1091.08 347.802 1092.44 349.734 1095.1 352.399" stroke="white" stroke-width="4" stroke-linecap="round"/>
<path d="M1090.69 270.775C1094.31 266.521 1095.28 262.606 1097.31 257.539" stroke="white" stroke-width="4" stroke-linecap="round"/>
<path d="M1110.55 171.503L1112.75 169.297" stroke="white" stroke-width="4" stroke-linecap="round"/>
<path d="M1187.76 151.648C1190.29 155.028 1190.86 158.739 1192.17 162.679" stroke="white" stroke-width="4" stroke-linecap="round"/>
<path d="M792.875 745.076C790.556 750.178 784.331 751.89 779.639 753.901" stroke="white" stroke-width="4" stroke-linecap="round"/>
<path d="M664.924 793.61C659.312 801.309 653.407 808.424 647.275 815.67" stroke="white" stroke-width="4" stroke-linecap="round"/>
<path d="M872.293 625.95C878.064 618.254 892.449 614.518 900.972 610.507" stroke="white" stroke-width="4" stroke-linecap="round"/>
<path d="M938.475 992.154L942.887 996.566" stroke="white" stroke-width="4" stroke-linecap="round"/>
<path d="M1046.57 1075.98C1049.18 1078.33 1051.34 1079.82 1053.19 1082.6" stroke="white" stroke-width="4" stroke-linecap="round"/>
<path d="M1218.64 1274.53C1222.62 1276.52 1226.14 1278.5 1229.67 1281.15" stroke="white" stroke-width="4" stroke-linecap="round"/>
<path d="M1355.42 1360.56C1361.32 1364.36 1366.79 1363.56 1373.07 1362.77" stroke="white" stroke-width="4" stroke-linecap="round"/>
<path d="M497.265 1433.36C493.839 1436.79 490.678 1438.08 486.234 1439.98" stroke="white" stroke-width="4" stroke-linecap="round"/>
<path d="M232.537 1448.81C212.758 1452.52 195.706 1457.63 175.18 1457.63" stroke="white" stroke-width="4" stroke-linecap="round"/>
<path d="M1121.58 923.775V934.806" stroke="white" stroke-width="15" stroke-linecap="round"/>
<path d="M1520.87 1503.97V1506.17" stroke="white" stroke-width="15" stroke-linecap="round"/>
<path d="M1050.98 1523.82C1053.16 1517.16 1055 1510.46 1057.6 1503.97" stroke="white" stroke-width="15" stroke-linecap="round"/>
<path d="M1328.94 1135.56L1344.39 1115.7" stroke="white" stroke-width="15" stroke-linecap="round"/>
<path d="M1600.29 941.424L1606.91 948.042" stroke="white" stroke-width="15" stroke-linecap="round"/>
<path d="M1756.92 1620.89C1757.81 1627.55 1759.87 1634.18 1761.33 1640.74" stroke="white" stroke-width="15" stroke-linecap="round"/>
<path d="M1373.06 2000.33C1359.63 2000.33 1346.61 1999.52 1333.36 1998.12" stroke="white" stroke-width="15" stroke-linecap="round"/>
<path d="M1037.75 1817.23L1055.39 1808.4" stroke="white" stroke-width="15" stroke-linecap="round"/>
<path d="M1384.1 1680.45V1678.25" stroke="white" stroke-width="15" stroke-linecap="round"/>
<path d="M1097.31 1153.2C1095.98 1147.23 1095.61 1141.62 1095.1 1135.56" stroke="white" stroke-width="15" stroke-linecap="round"/>
<path d="M1234.08 1329.69C1240.32 1335.51 1247.08 1340.1 1253.94 1345.13" stroke="white" stroke-width="15" stroke-linecap="round"/>
<path d="M1615.73 1270.13C1618.75 1263.55 1620.37 1257.18 1622.35 1250.27" stroke="white" stroke-width="15" stroke-linecap="round"/>
<path d="M1708.38 1012.02C1714.26 1010.84 1717.11 1006.8 1721.62 1003.19" stroke="white" stroke-width="15" stroke-linecap="round"/>
<path d="M1628.97 800.236H1626.76" stroke="white" stroke-width="15" stroke-linecap="round"/>
<path d="M1260.56 848.77H1262.76" stroke="white" stroke-width="15" stroke-linecap="round"/>
<path d="M1820.89 1155.41C1824.56 1161.06 1827.02 1162.94 1831.92 1166.44" stroke="white" stroke-width="4" stroke-linecap="round"/>
<path d="M1589.26 1128.94H1591.46" stroke="white" stroke-width="4" stroke-linecap="round"/>
<path d="M1503.22 1075.99C1504.7 1080.06 1508.95 1082.11 1512.05 1084.82" stroke="white" stroke-width="4" stroke-linecap="round"/>
<path d="M1408.36 965.69C1412.37 962.608 1417.04 961.145 1421.6 959.072" stroke="white" stroke-width="4" stroke-linecap="round"/>
<path d="M1055.39 787L1057.6 791.412" stroke="white" stroke-width="4" stroke-linecap="round"/>
<path d="M953.916 956.866C957.427 963.569 961.272 970.107 964.946 976.72" stroke="white" stroke-width="4" stroke-linecap="round"/>
<path d="M984.801 1265.71V1270.13" stroke="white" stroke-width="4" stroke-linecap="round"/>
<path d="M958.328 1464.26L971.564 1477.49" stroke="white" stroke-width="4" stroke-linecap="round"/>
<path d="M1178.93 1634.12C1182.7 1636.98 1186.33 1639.92 1189.96 1642.95" stroke="white" stroke-width="4" stroke-linecap="round"/>
<path d="M1313.5 1792.96H1320.12" stroke="white" stroke-width="4" stroke-linecap="round"/>
<path d="M1626.76 1867.97L1635.59 1865.76" stroke="white" stroke-width="4" stroke-linecap="round"/>
<path d="M1767.95 1876.79C1769.97 1880.03 1775.86 1878.68 1778.98 1879" stroke="white" stroke-width="4" stroke-linecap="round"/>
<path d="M1831.92 1446.61C1826.31 1454.31 1820.41 1461.42 1814.28 1468.67" stroke="white" stroke-width="4" stroke-linecap="round"/>
<path d="M1037.74 2037.83C1036.99 2030.26 1036.97 2023.48 1037.74 2015.77" stroke="white" stroke-width="4" stroke-linecap="round"/>
<path d="M912 1812.81V1865.76" stroke="white" stroke-width="4" stroke-linecap="round"/>
<path d="M936.268 1671.63C938.439 1665.66 947.107 1660.33 951.71 1656.18" stroke="white" stroke-width="4" stroke-linecap="round"/>
<path d="M891.941 1332.41C896.668 1341.86 905.813 1346.8 914.002 1352.26" stroke="white" stroke-width="15" stroke-linecap="round"/>
<path d="M355.871 1755.97V1758.17" stroke="white" stroke-width="15" stroke-linecap="round"/>
<path d="M852.232 1045.62C854.52 1047.45 856.111 1047.28 858.851 1047.82" stroke="white" stroke-width="15" stroke-linecap="round"/>
<path d="M1156.67 1418.44L1163.29 1407.41" stroke="white" stroke-width="15" stroke-linecap="round"/>
<path d="M435.289 1193.42L441.907 1200.04" stroke="white" stroke-width="15" stroke-linecap="round"/>
<path d="M591.918 1872.89C592.807 1879.55 594.872 1886.18 596.33 1892.74" stroke="white" stroke-width="15" stroke-linecap="round"/>
<path d="M219.096 1932.45V1930.25" stroke="white" stroke-width="15" stroke-linecap="round"/>
<path d="M69.084 1581.69C75.32 1587.51 82.0791 1592.1 88.9385 1597.13" stroke="white" stroke-width="15" stroke-linecap="round"/>
<path d="M450.73 1522.13C453.752 1515.55 455.374 1509.18 457.349 1502.27" stroke="white" stroke-width="15" stroke-linecap="round"/>
<path d="M543.385 1264.02C549.265 1262.84 552.114 1258.8 556.621 1255.19" stroke="white" stroke-width="15" stroke-linecap="round"/>
<path d="M463.968 1052.24H461.762" stroke="white" stroke-width="15" stroke-linecap="round"/>
<path d="M95.5566 1100.77H97.7627" stroke="white" stroke-width="15" stroke-linecap="round"/>
<path d="M894.146 1153.71L896.353 1155.92" stroke="white" stroke-width="4" stroke-linecap="round"/>
<path d="M786.051 1226.51V1230.93" stroke="white" stroke-width="4" stroke-linecap="round"/>
<path d="M832.377 1826.56C838.39 1827.36 844.185 1829.42 850.025 1830.97" stroke="white" stroke-width="4" stroke-linecap="round"/>
<path d="M655.895 1407.41C659.564 1413.06 662.019 1414.94 666.925 1418.44" stroke="white" stroke-width="4" stroke-linecap="round"/>
<path d="M424.258 1380.94H426.464" stroke="white" stroke-width="4" stroke-linecap="round"/>
<path d="M338.223 1327.99C339.702 1332.06 343.954 1334.11 347.047 1336.82" stroke="white" stroke-width="4" stroke-linecap="round"/>
<path d="M243.361 1217.69C247.368 1214.61 252.038 1213.14 256.598 1211.07" stroke="white" stroke-width="4" stroke-linecap="round"/>
<path d="M13.9316 1886.12C17.7039 1888.98 21.3339 1891.92 24.9619 1894.95" stroke="white" stroke-width="4" stroke-linecap="round"/>
<path d="M148.502 2044.96H155.12" stroke="white" stroke-width="4" stroke-linecap="round"/>
<path d="M1302.27 2062.61C1304 2055.29 1305.29 2047.94 1306.68 2040.55" stroke="white" stroke-width="4" stroke-linecap="round"/>
<path d="M1304.47 1930.25L1306.68 1921.42" stroke="white" stroke-width="4" stroke-linecap="round"/>
<path d="M1346.39 1663.31C1348.9 1660.52 1349.92 1658.03 1350.8 1654.49" stroke="white" stroke-width="4" stroke-linecap="round"/>
<path d="M1372.86 1433.88C1375.02 1422.79 1373.28 1411.98 1372.86 1400.79" stroke="white" stroke-width="4" stroke-linecap="round"/>
<path d="M1275.79 1281.67C1275.57 1279.61 1274.68 1278.9 1273.59 1277.25" stroke="white" stroke-width="4" stroke-linecap="round"/>
<path d="M1227.26 1169.16C1240.11 1159.98 1258.77 1156.45 1273.59 1151.51" stroke="white" stroke-width="4" stroke-linecap="round"/>
<path d="M1392.71 1107.39L1408.16 1098.56" stroke="white" stroke-width="4" stroke-linecap="round"/>
<path d="M1092.69 1248.57C1093.08 1252.8 1094.44 1254.73 1097.1 1257.4" stroke="white" stroke-width="4" stroke-linecap="round"/>
<path d="M1092.69 1175.78C1096.31 1171.52 1097.28 1167.61 1099.31 1162.54" stroke="white" stroke-width="4" stroke-linecap="round"/>
<path d="M1112.55 1076.5L1114.75 1074.3" stroke="white" stroke-width="4" stroke-linecap="round"/>
<path d="M1189.76 1056.65C1192.29 1060.03 1192.86 1063.74 1194.17 1067.68" stroke="white" stroke-width="4" stroke-linecap="round"/>
<path d="M794.875 1650.08C792.556 1655.18 786.331 1656.89 781.639 1658.9" stroke="white" stroke-width="4" stroke-linecap="round"/>
<path d="M666.924 1698.61C661.312 1706.31 655.407 1713.42 649.275 1720.67" stroke="white" stroke-width="4" stroke-linecap="round"/>
<path d="M874.293 1530.95C880.064 1523.25 894.449 1519.52 902.972 1515.51" stroke="white" stroke-width="4" stroke-linecap="round"/>
<path d="M940.475 1897.15L944.887 1901.57" stroke="white" stroke-width="4" stroke-linecap="round"/>
<path d="M1048.57 1980.98C1051.18 1983.33 1053.34 1984.82 1055.19 1987.6" stroke="white" stroke-width="4" stroke-linecap="round"/>
<path d="M1512.87 469.967V472.173" stroke="white" stroke-width="15" stroke-linecap="round"/>
<path d="M1042.98 489.821C1045.16 483.156 1047 476.456 1049.6 469.967" stroke="white" stroke-width="15" stroke-linecap="round"/>
<path d="M1320.94 101.556L1336.39 81.7017" stroke="white" stroke-width="15" stroke-linecap="round"/>
<path d="M1748.92 586.888C1749.81 593.555 1751.87 600.182 1753.33 606.742" stroke="white" stroke-width="15" stroke-linecap="round"/>
<path d="M1365.06 966.329C1351.63 966.329 1338.61 965.518 1325.36 964.123" stroke="white" stroke-width="15" stroke-linecap="round"/>
<path d="M1029.75 783.226L1047.39 774.402" stroke="white" stroke-width="15" stroke-linecap="round"/>
<path d="M1376.1 646.451V644.245" stroke="white" stroke-width="15" stroke-linecap="round"/>
<path d="M1089.31 119.205C1087.98 113.23 1087.61 107.615 1087.1 101.556" stroke="white" stroke-width="15" stroke-linecap="round"/>
<path d="M1226.08 295.689C1232.32 301.509 1239.08 306.101 1245.94 311.131" stroke="white" stroke-width="15" stroke-linecap="round"/>
<path d="M1607.73 236.125C1610.75 229.549 1612.37 223.181 1614.35 216.271" stroke="white" stroke-width="15" stroke-linecap="round"/>
<path d="M1812.89 121.411C1816.56 127.056 1819.02 128.937 1823.92 132.441" stroke="white" stroke-width="4" stroke-linecap="round"/>
<path d="M1581.26 94.938H1583.46" stroke="white" stroke-width="4" stroke-linecap="round"/>
<path d="M1495.22 41.9929C1496.7 46.0603 1500.95 48.1108 1504.05 50.8171" stroke="white" stroke-width="4" stroke-linecap="round"/>
<path d="M976.801 231.713V236.125" stroke="white" stroke-width="4" stroke-linecap="round"/>
<path d="M950.328 430.258L963.564 443.494" stroke="white" stroke-width="4" stroke-linecap="round"/>
<path d="M1170.93 600.124C1174.7 602.982 1178.33 605.925 1181.96 608.948" stroke="white" stroke-width="4" stroke-linecap="round"/>
<path d="M1305.5 758.96H1312.12" stroke="white" stroke-width="4" stroke-linecap="round"/>
<path d="M1618.76 833.966L1627.59 831.76" stroke="white" stroke-width="4" stroke-linecap="round"/>
<path d="M1759.95 842.79C1761.97 846.028 1767.86 844.684 1770.98 844.996" stroke="white" stroke-width="4" stroke-linecap="round"/>
<path d="M1823.92 412.61C1818.31 420.309 1812.41 427.424 1806.28 434.67" stroke="white" stroke-width="4" stroke-linecap="round"/>
<path d="M1656.26 1052.36C1652.84 1055.79 1649.68 1057.08 1645.23 1058.98" stroke="white" stroke-width="4" stroke-linecap="round"/>
<path d="M1391.54 1067.81C1371.76 1071.52 1354.71 1076.63 1334.18 1076.63" stroke="white" stroke-width="4" stroke-linecap="round"/>
<path d="M1109.16 1056.78C1103.24 1056.24 1097.23 1053.92 1091.52 1052.36" stroke="white" stroke-width="4" stroke-linecap="round"/>
<path d="M1029.74 1003.83C1028.99 996.261 1028.97 989.479 1029.74 981.771" stroke="white" stroke-width="4" stroke-linecap="round"/>
<path d="M904 778.814V831.759" stroke="white" stroke-width="4" stroke-linecap="round"/>
<path d="M928.268 637.627C930.439 631.656 939.107 626.328 943.71 622.185" stroke="white" stroke-width="4" stroke-linecap="round"/>
<path d="M647.03 205.749C641.366 216.269 658.577 205.813 656.738 211.33C656.308 212.62 655.8 214.711 654.068 214.303C653.8 214.24 650.885 213.393 652.491 213.393" stroke="white" stroke-width="4" stroke-linecap="round"/>
<path d="M491.386 752.099C490.225 754.42 485.283 770.559 491.386 767.072C494.255 765.432 496.614 766.538 499.756 765.491" stroke="white" stroke-width="4" stroke-linecap="round"/>
<path d="M1564.45 661.7C1558.74 666.835 1556.51 668.918 1564.82 672.116C1568.79 673.642 1570.66 678.846 1573.75 681.603C1576.74 684.271 1575.97 683.661 1572.82 686.811" stroke="white" stroke-width="4" stroke-linecap="round"/>
<path d="M1705.07 385.483C1695.28 390.876 1691.07 396.682 1702.65 403.153C1705.18 404.568 1702.36 407.396 1701.72 410.593" stroke="white" stroke-width="4" stroke-linecap="round"/>
</g>
<defs>
<clipPath id="clip0_59_890">
<rect width="1920" height="2078" fill="white"/>
</clipPath>
</defs>
</svg>
