<svg width="1276" height="453" viewBox="0 0 1276 453" fill="none" xmlns="http://www.w3.org/2000/svg">
<rect y="31" width="1276" height="422" rx="50" fill="#401B16"/>
<rect x="8" y="8" width="1260" height="406" rx="42" fill="#FDEBAF" stroke="#401B16" stroke-width="16"/>
<path d="M179.715 107H222.381V123.686H197.948V140.614H221.165V156.997H198.191V178.112H222.989V194.737H179.715V107Z" fill="#E36C00"/>
<path d="M275.38 107H296.652V194.737H279.634V140.129L265.959 194.737H260.489L246.814 140.129V194.737H229.796V107H251.068L263.224 150.686L275.38 107Z" fill="#E36C00"/>
<path d="M359.132 158.21V194.737H317.925L305.769 182.602V107H343.451L355.911 118.589V142.738L347.28 149.655L359.132 158.21ZM340.656 178.112V158.21H324.185V178.112H340.656ZM337.677 141.828V123.686H324.185V141.828H337.677Z" fill="#E36C00"/>
<path d="M385.389 194.737H366.912V120.895L381.073 107H419.485V194.737H401.069V165.916H385.389V194.737ZM401.069 149.23V123.686H385.389V149.23H401.069Z" fill="#E36C00"/>
<path d="M460.693 194.737L449.753 163.003H444.891V194.737H426.475V119.378L439.846 107H477.468V162.761H467.5L479.17 194.737H460.693ZM459.052 146.56V123.686H444.891V146.56H459.052Z" fill="#E36C00"/>
<path d="M541.407 146.136V194.737H522.991V162.7H504.453V194.737H486.037V107H504.453V146.136H505.669L522.93 107H541.285L524.449 146.136H541.407Z" fill="#E36C00"/>
<path d="M578.542 107H631.602V194.737H578.542V107ZM597.019 178.112H613.186V123.686H597.019V178.112Z" fill="#E36C00"/>
<path d="M675.788 157.361V107H693.17V194.737H674.937L656.946 144.376V194.737H639.685V107H657.919L675.788 157.361Z" fill="#E36C00"/>
<path d="M748.722 194.737H730.245V120.895L744.406 107H782.818V194.737H764.402V165.916H748.722V194.737ZM764.402 149.23V123.686H748.722V149.23H764.402Z" fill="#E36C00"/>
<path d="M866.571 194.737H818.252V167.433H836.668V178.112H848.094V164.156L818.86 142.131V107H866.024V133.09H849.31V123.746H837.276V135.214L866.571 157.179V194.737Z" fill="#E36C00"/>
<path d="M892.949 194.737H874.533V119.378L887.843 107H925.526V172.469H892.949V194.737ZM907.11 155.662V123.686H892.949V155.662H907.11Z" fill="#E36C00"/>
<path d="M951.843 194.737H933.366V120.895L947.528 107H985.939V194.737H967.524V165.916H951.843V194.737ZM967.524 149.23V123.686H951.843V149.23H967.524Z" fill="#E36C00"/>
<path d="M1026.24 178.112V167.433H1044.71V182.602L1032.56 194.737H992.929V119.074L1006.06 107H1044.71V140.129H1026.24V123.686H1011.41V178.112H1026.24Z" fill="#E36C00"/>
<path d="M1052.13 107H1094.79V123.686H1070.36V140.614H1093.58V156.997H1070.6V178.112H1095.4V194.737H1052.13V107Z" fill="#E36C00"/>
<path d="M88 291.696H106.416V302.375H116.627V257.111H135.042V306.926L122.097 319H88V291.696ZM135.042 231.263V252.257H116.627V231.263H135.042Z" fill="#E36C00"/>
<path d="M142.944 231.263H196.003V319H142.944V231.263ZM161.42 302.375H177.587V247.949H161.42V302.375Z" fill="#E36C00"/>
<path d="M256.052 319H204.087V231.263H222.503V302.375H237.576V231.263H256.052V319Z" fill="#E36C00"/>
<path d="M298.475 319L287.535 287.267H282.673V319H264.257V243.641L277.628 231.263H315.25V287.024H305.283L316.952 319H298.475ZM296.834 270.824V247.949H282.673V270.824H296.834Z" fill="#E36C00"/>
<path d="M359.922 281.624V231.263H377.305V319H359.071L341.081 268.639V319H323.82V231.263H342.054L359.922 281.624Z" fill="#E36C00"/>
<path d="M385.936 231.263H428.602V247.949H404.169V264.878H427.386V281.26H404.412V302.375H429.21V319H385.936V231.263Z" fill="#E36C00"/>
<path d="M474.003 231.263H493.149L463.489 319H444.283L455.648 285.446L437.232 231.263H456.256L464.765 258.446L474.003 231.263Z" fill="#E36C00"/>
<path d="M560.977 319H544.202L529.069 231.263H546.998L554.899 283.566L564.32 231.263H577.083L586.504 283.566L594.405 231.263H612.335L597.201 319H580.426L570.702 264.635L560.977 319Z" fill="#E36C00"/>
<path d="M638.834 258.203V319H620.418V258.203H638.834ZM638.834 231.263V252.864H620.418V231.263H638.834Z" fill="#E36C00"/>
<path d="M698.032 247.949H681.44V319H662.902V247.949H645.702V231.263H698.032V247.949Z" fill="#E36C00"/>
<path d="M723.924 267.305H739.726V231.263H758.142V319H739.726V283.93H723.924V319H705.508V231.263H723.924V267.305Z" fill="#E36C00"/>
<path d="M794.488 231.263H832.292L846.453 245.158V306.865L834.115 319H794.488V231.263ZM827.977 302.375V247.949H812.903V302.375H827.977Z" fill="#E36C00"/>
<path d="M853.807 231.263H906.867V319H853.807V231.263ZM872.284 302.375H888.451V247.949H872.284V302.375Z" fill="#E36C00"/>
<path d="M949.229 302.375V288.844H941.754V273.251H967.463V319H914.95V231.263H964.424V247.949H933.427V302.375H949.229Z" fill="#E36C00"/>
<path d="M994.388 258.203V319H975.972V258.203H994.388ZM994.388 231.263V252.864H975.972V231.263H994.388Z" fill="#E36C00"/>
<path d="M1053.59 247.949H1036.99V319H1018.46V247.949H1001.26V231.263H1053.59V247.949Z" fill="#E36C00"/>
<path d="M1061.06 231.263H1103.73V247.949H1079.3V264.878H1102.51V281.26H1079.54V302.375H1104.34V319H1061.06V231.263Z" fill="#E36C00"/>
<path d="M1145.36 319L1134.42 287.267H1129.56V319H1111.14V243.641L1124.51 231.263H1162.14V287.024H1152.17L1163.84 319H1145.36ZM1143.72 270.824V247.949H1129.56V270.824H1143.72Z" fill="#E36C00"/>
<path d="M1189 231.263V244.127L1184.99 293.759H1174.72L1170.71 244.127V231.263H1189ZM1171.56 319V301.95H1188.15V319H1171.56Z" fill="#E36C00"/>
</svg>
