<svg width="1283" height="1102" viewBox="0 0 1283 1102" fill="none" xmlns="http://www.w3.org/2000/svg">
<path fill-rule="evenodd" clip-rule="evenodd" d="M1274.21 399.482C1278.65 399.482 1282.27 395.865 1282.27 391.432C1282.27 386.999 1278.65 383.381 1274.21 383.381C1269.78 383.381 1266.16 386.999 1266.16 391.432C1266.16 395.865 1269.78 399.482 1274.21 399.482Z" fill="#848D93"/>
<path fill-rule="evenodd" clip-rule="evenodd" d="M526.863 16.8023C313.381 80.2382 191.748 304.709 255.176 518.175C318.603 731.649 543.074 853.29 756.54 789.871C970.023 726.435 1091.66 501.964 1028.24 288.498C964.809 75.024 740.337 -46.6166 526.863 16.8023Z" fill="#FDEBAF"/>
<path fill-rule="evenodd" clip-rule="evenodd" d="M975.384 329.455C975.384 541.435 803.547 713.272 591.568 713.272C444.773 713.272 317.239 630.874 252.674 509.802C299.372 680.841 455.856 806.558 641.705 806.558C864.401 806.558 1044.93 626.05 1044.93 403.345C1044.93 271.735 981.881 154.85 884.341 81.2488C941.136 148.175 975.384 234.811 975.384 329.455Z" fill="#F3D492"/>
<path fill-rule="evenodd" clip-rule="evenodd" d="M358.06 690.047L519.766 655.714C596.577 639.383 583.796 620.285 699.857 595.624C815.919 570.971 917.883 599.054 970.645 629.736C971.851 630.433 973.014 631.053 974.169 631.647C987.731 611.852 999.433 590.961 1009.21 569.247C961.72 547.363 840.045 503.739 685.837 541.886C486.027 591.309 568.944 595.522 436.178 623.707L321.212 648.139C332.617 663.102 344.956 677.071 358.06 690.047ZM238.44 399.499C277.13 410.046 333.789 414.199 414.175 397.138C605.392 356.512 639.623 349.251 749.018 326.017C849.497 304.659 977.651 278.19 1032.55 303.87C1043.13 345.302 1046.84 387.551 1044.14 429.102L1034.91 435.437C1034.91 435.437 1047.5 367.331 823.732 414.853C599.948 462.383 796.166 420.712 660.904 449.441C533.226 476.565 346.222 564.475 298.225 614.561C294.488 608.498 290.904 602.315 287.465 595.989C253.463 533.47 237.744 465.924 238.44 399.499ZM310.207 173.635C344.294 178.739 388.775 179.138 443.923 167.427C591.711 136.023 685.234 116.169 767.064 98.7857C798.111 92.1874 824.131 74.3369 844.469 54.7372C900.976 87.5336 950.162 134.452 986.177 193.736L962.229 179.494L270.243 246.446C280.977 220.987 294.344 196.564 310.207 173.635ZM359.775 114.912C462.708 121.528 610.385 108.39 755.795 16.5908C656.862 -12.5965 546.805 -4.07041 449.044 49.107C415.593 67.3056 385.744 89.5548 359.775 114.912ZM500.599 781.065C535.867 745.101 612.304 678.065 714.872 650.041C813.635 623.045 889.859 661.191 927.794 687.601C900.865 714.683 869.631 738.384 834.347 757.568C727.576 815.637 606.165 820.46 500.599 781.065Z" fill="#F4AF63"/>
<path fill-rule="evenodd" clip-rule="evenodd" d="M970.654 170.093C946.604 136.235 917.468 106.241 884.34 81.2488C909.579 110.98 930.342 144.608 945.662 181.09L962.23 179.494L986.177 193.735C981.235 185.625 976.072 177.744 970.654 170.093ZM317.324 597.958C291.831 571.938 270.014 542.301 252.725 509.895C260.775 539.227 272.307 568.1 287.466 595.988C290.905 602.315 294.489 608.497 298.225 614.56C303.176 609.406 309.622 603.826 317.324 597.958ZM425.717 675.678C404.121 665.317 383.639 652.995 364.515 638.941L321.256 648.129C332.593 662.94 344.932 676.943 358.154 690.021L425.717 675.678ZM913.833 537.979C900.866 557.969 886.107 576.685 869.751 593.89C911.54 602.017 946.333 615.588 970.645 629.736C971.826 630.424 972.981 631.035 974.11 631.612C978.348 625.456 982.424 619.205 986.313 612.811L986.882 611.868C988.046 609.966 989.175 608.038 990.296 606.094C997.234 594.137 1003.55 581.832 1009.21 569.247C989.371 560.101 956.549 547.159 913.833 537.979ZM975.384 329.455C975.384 353.004 973.244 376.043 969.193 398.42C1040.99 402.445 1034.91 435.437 1034.91 435.437L1044.08 429.136C1044.63 420.593 1044.93 412.016 1044.93 403.345C1044.93 372.629 1041.49 342.72 1034.99 313.974L1034.91 313.601L1034.73 312.828L1034.04 309.881C1033.55 307.877 1033.07 305.865 1032.55 303.869C1017.65 296.905 997.37 293.78 973.703 293.347C974.815 305.228 975.384 317.278 975.384 329.455ZM500.6 781.065C518.102 763.214 545.744 737.713 581.683 713.128C584.961 713.213 588.255 713.272 591.567 713.272C674.161 713.272 750.658 687.185 813.278 642.788C864.138 649.344 903.634 670.786 927.718 687.55C911.609 703.77 894.14 718.614 875.492 731.912L874.524 732.6C872.621 733.942 870.702 735.267 868.774 736.566L864.69 739.317L863.152 740.345C853.862 746.425 844.266 752.166 834.347 757.567C809.483 771.086 783.803 781.735 757.732 789.591L756.237 790.049C754.029 790.686 751.83 791.331 749.605 791.951C747.703 792.469 745.8 792.987 743.89 793.489L741.937 794.007C709.888 802.218 676.31 806.558 641.705 806.558C627.531 806.558 613.536 805.836 599.745 804.401L598.106 804.231C596.212 804.027 594.344 803.806 592.476 803.577C561.047 799.679 530.204 792.104 500.6 781.065Z" fill="#DD9A4E"/>
<path fill-rule="evenodd" clip-rule="evenodd" d="M242.549 461.201C262.998 465.583 290.64 466.135 327.733 458.263C443.794 433.602 545.657 411.973 647.528 390.335C749.399 368.697 851.27 347.051 893.026 338.185C929.228 330.5 1007.97 328.224 1042.31 356.664C1043.34 365.496 1044.09 374.327 1044.53 383.159C1024.41 369.665 973.301 349.055 863.617 372.357C710.819 404.814 527.951 443.648 446.138 461.032C390.073 472.938 311.963 512.052 266.072 550.012C254.675 520.943 246.888 491.162 242.549 461.201Z" fill="#E0984B"/>
<path fill-rule="evenodd" clip-rule="evenodd" d="M273.377 544.152C270.864 546.114 268.418 548.067 266.066 550.012C260.86 536.764 256.427 523.389 252.725 509.895C259.017 521.699 265.921 533.13 273.377 544.152ZM975.325 334.474C1001.36 337.013 1026.47 343.586 1042.24 356.613C1043.26 365.36 1043.98 374.183 1044.42 383.091C1032.84 375.346 1011.08 365.309 973.957 362.532C974.747 353.276 975.197 343.909 975.325 334.474Z" fill="#BF8139"/>
<path fill-rule="evenodd" clip-rule="evenodd" d="M262.203 267.107L388.744 240.221C458.048 225.512 510.028 260.721 545.567 263.642C581.09 266.563 597.607 233.393 671.165 238.709C744.732 244.017 798.376 278.885 859.681 267.599C920.994 256.322 1006.64 236.391 1006.64 236.391L1007.13 232.935C1003.65 225.453 999.928 218.031 995.937 210.685C972.762 168.089 943.014 131.335 908.655 100.993L634.224 159.291L275.001 235.593C270.296 245.919 266.025 256.432 262.203 267.107Z" fill="#E0984B"/>
<path fill-rule="evenodd" clip-rule="evenodd" d="M966.186 245.545C990.032 240.255 1006.65 236.391 1006.65 236.391L1007.13 232.935C1003.65 225.453 999.934 218.031 995.942 210.685C989.123 198.177 981.76 186.16 973.854 174.662L971.655 171.486L971.502 171.265C953.295 145.449 932.15 121.875 908.533 101.019L901.188 102.581C932.005 144.549 954.475 193.022 966.186 245.545Z" fill="#C3843B"/>
<path fill-rule="evenodd" clip-rule="evenodd" d="M590.064 96.9687C573.989 100.586 558.024 90.4807 554.423 74.4137C550.805 58.3382 560.894 42.3816 576.978 38.7639C584.884 36.9806 593.189 35.4095 601.86 34.0508C610.097 32.743 618.445 31.7071 626.835 30.9428C643.242 29.4651 657.738 41.5494 659.207 57.9391C660.693 74.3374 648.609 88.8332 632.21 90.3109C625.06 90.9648 617.969 91.848 610.972 92.952C604.221 94.0135 597.248 95.3552 590.064 96.9687ZM345.153 323.444C340.507 339.256 323.914 348.309 308.101 343.672C292.289 339.019 283.245 322.434 287.89 306.613C302.633 257.036 327.642 211.391 360.328 172.039C393.447 132.169 434.413 98.803 480.55 74.3967C495.14 66.7114 513.194 72.3163 520.871 86.8972C528.556 101.487 522.96 119.541 508.37 127.218C469.027 148.04 434.192 176.361 406.151 210.134C378.62 243.262 357.568 281.706 345.153 323.444Z" fill="#FEF7D8"/>
<path fill-rule="evenodd" clip-rule="evenodd" d="M950.586 144.022C953.464 143.904 956.318 143.81 959.154 143.734C1076.85 140.464 1161.24 169.125 1184.37 230.489C1207.49 291.836 1163.02 369.046 1072.41 444.277C988.757 513.759 864.195 584.176 718.599 639.06L718.539 639.069C572.934 693.945 432.917 723.259 324.269 726.274C206.552 729.543 122.166 700.883 99.0418 639.519C75.9263 578.172 120.391 500.962 210.993 425.731C219.706 418.495 228.843 411.269 238.388 404.042C238.448 425.476 240.206 447.097 243.789 468.76C172.677 528.213 135.77 583.386 149.714 620.437C163.785 657.76 228.903 674.812 322.774 672.205C425.707 669.343 559.423 641.166 699.5 588.371C839.628 535.55 958.67 468.48 1037.86 402.717C1110.1 342.712 1147.77 286.919 1133.69 249.571C1121.07 216.078 1067.33 198.924 988.605 197.625C977.319 178.577 964.589 160.675 950.586 144.022Z" fill="#E3672E"/>
<path fill-rule="evenodd" clip-rule="evenodd" d="M695.295 303.445C725.501 303.445 750.137 278.81 750.137 248.612C750.137 218.414 725.501 193.77 695.295 193.77C665.097 193.77 640.453 218.414 640.453 248.612C640.453 278.81 665.097 303.445 695.295 303.445Z" fill="#E0984B"/>
<path fill-rule="evenodd" clip-rule="evenodd" d="M695.296 280.805C713.036 280.805 727.506 266.343 727.506 248.604C727.506 230.872 713.036 216.402 695.296 216.402C677.564 216.402 663.094 230.872 663.094 248.604C663.094 266.343 677.564 280.805 695.296 280.805Z" fill="#FDEBAF"/>
<path fill-rule="evenodd" clip-rule="evenodd" d="M610.192 322.467C625.121 322.467 637.282 310.298 637.282 295.377C637.282 280.457 625.121 268.296 610.192 268.296C595.28 268.296 583.119 280.457 583.119 295.377C583.119 310.298 595.28 322.467 610.192 322.467Z" fill="#E0984B"/>
<path fill-rule="evenodd" clip-rule="evenodd" d="M768.516 296.039C775.046 296.039 780.379 290.706 780.379 284.176C780.379 277.628 775.046 272.295 768.516 272.295C761.977 272.295 756.652 277.628 756.652 284.176C756.652 290.706 761.977 296.039 768.516 296.039Z" fill="#E0984B"/>
<path fill-rule="evenodd" clip-rule="evenodd" d="M831.183 164.769C851.896 164.769 868.778 147.878 868.778 127.175C868.778 106.462 851.896 89.5801 831.183 89.5801C810.48 89.5801 793.598 106.462 793.598 127.175C793.598 147.878 810.48 164.769 831.183 164.769Z" fill="#F4AF63"/>
<path fill-rule="evenodd" clip-rule="evenodd" d="M831.188 148.022C842.678 148.022 852.044 138.655 852.044 127.174C852.044 115.684 842.678 106.317 831.188 106.317C819.715 106.317 810.34 115.684 810.34 127.174C810.34 138.655 819.715 148.022 831.188 148.022Z" fill="#E0984B"/>
<path fill-rule="evenodd" clip-rule="evenodd" d="M887.926 464.53C894.609 464.53 900.069 459.078 900.069 452.387C900.069 445.695 894.609 440.243 887.926 440.243C881.234 440.243 875.773 445.695 875.773 452.387C875.773 459.078 881.234 464.53 887.926 464.53Z" fill="#E0984B"/>
<path fill-rule="evenodd" clip-rule="evenodd" d="M803.841 470.221C825.717 470.221 843.55 452.362 843.55 430.495C843.55 408.62 825.717 390.786 803.841 390.786C781.957 390.786 764.115 408.62 764.115 430.495C764.115 452.362 781.957 470.221 803.841 470.221Z" fill="#F4AF63"/>
<path fill-rule="evenodd" clip-rule="evenodd" d="M803.838 453.237C816.355 453.237 826.562 443.021 826.562 430.495C826.562 417.977 816.355 407.77 803.838 407.77C791.312 407.77 781.096 417.977 781.096 430.495C781.096 443.021 791.312 453.237 803.838 453.237Z" fill="#FDEBAF"/>
<path fill-rule="evenodd" clip-rule="evenodd" d="M743.109 492.801C752.467 492.801 760.102 485.166 760.102 475.808C760.102 466.458 752.467 458.815 743.109 458.815C733.759 458.815 726.125 466.458 726.125 475.808C726.125 485.166 733.759 492.801 743.109 492.801Z" fill="#F4AF63"/>
<path fill-rule="evenodd" clip-rule="evenodd" d="M705.251 467.027C709.446 467.027 712.851 463.622 712.851 459.452C712.851 455.266 709.446 451.86 705.251 451.86C701.081 451.86 697.676 455.266 697.676 459.452C697.676 463.622 701.081 467.027 705.251 467.027Z" fill="#F4AF63"/>
<path fill-rule="evenodd" clip-rule="evenodd" d="M860.878 431.938C865.056 431.938 868.453 428.533 868.453 424.355C868.453 420.177 865.056 416.772 860.878 416.772C856.7 416.772 853.295 420.177 853.295 424.355C853.295 428.533 856.7 431.938 860.878 431.938Z" fill="#F4AF63"/>
<path fill-rule="evenodd" clip-rule="evenodd" d="M368.079 323.095C384.257 323.095 397.436 309.915 397.436 293.755C397.436 277.586 384.257 264.406 368.079 264.406C351.919 264.406 338.73 277.586 338.73 293.755C338.73 309.915 351.919 323.095 368.079 323.095Z" fill="#FEF7D8"/>
<path fill-rule="evenodd" clip-rule="evenodd" d="M430.517 290.944C438.653 290.944 445.268 284.311 445.268 276.184C445.268 268.049 438.653 261.425 430.517 261.425C422.39 261.425 415.758 268.049 415.758 276.184C415.758 284.311 422.39 290.944 430.517 290.944Z" fill="#FEF7D8"/>
<path fill-rule="evenodd" clip-rule="evenodd" d="M408.742 427.819C431.951 427.819 450.871 408.89 450.871 385.69C450.871 362.481 431.951 343.561 408.742 343.561C385.533 343.561 366.621 362.481 366.621 385.69C366.621 408.89 385.533 427.819 408.742 427.819Z" fill="#F4AF63"/>
<path fill-rule="evenodd" clip-rule="evenodd" d="M339.694 398.471C348.653 398.471 355.965 391.151 355.965 382.192C355.965 373.225 348.653 365.913 339.694 365.913C330.726 365.913 323.406 373.225 323.406 382.192C323.406 391.151 330.726 398.471 339.694 398.471Z" fill="#F4AF63"/>
<path fill-rule="evenodd" clip-rule="evenodd" d="M477.865 374.023C483.343 374.023 487.818 369.556 487.818 364.07C487.818 358.584 483.343 354.109 477.865 354.109C472.38 354.109 467.904 358.584 467.904 364.07C467.904 369.556 472.38 374.023 477.865 374.023Z" fill="#F4AF63"/>
<path fill-rule="evenodd" clip-rule="evenodd" d="M408.733 411.32C422.855 411.32 434.379 399.805 434.379 385.691C434.379 371.577 422.855 360.053 408.733 360.053C394.619 360.053 383.104 371.577 383.104 385.691C383.104 399.805 394.619 411.32 408.733 411.32Z" fill="#FDEBAF"/>
<path fill-rule="evenodd" clip-rule="evenodd" d="M551.478 613.796C574.678 613.796 593.607 594.867 593.607 571.658C593.607 548.458 574.678 529.537 551.478 529.537C528.277 529.537 509.34 548.458 509.34 571.658C509.34 594.867 528.277 613.796 551.478 613.796Z" fill="#F4AF63"/>
<path fill-rule="evenodd" clip-rule="evenodd" d="M458.99 600.601C470.514 600.601 479.898 591.208 479.898 579.71C479.898 568.169 470.514 558.786 458.99 558.786C447.492 558.786 438.1 568.169 438.1 579.71C438.1 591.208 447.492 600.601 458.99 600.601Z" fill="#F4AF63"/>
<path fill-rule="evenodd" clip-rule="evenodd" d="M608.961 553.128C614.549 553.128 619.1 548.585 619.1 543.005C619.1 537.426 614.549 532.883 608.961 532.883C603.399 532.883 598.855 537.426 598.855 543.005C598.855 548.585 603.399 553.128 608.961 553.128Z" fill="#F4AF63"/>
<rect y="232" width="1276" height="365" rx="50" fill="#401B16"/>
<rect x="8" y="213" width="1260" height="349" rx="42" fill="#FDEBAF" stroke="#401B16" stroke-width="16"/>
<path d="M114.89 249H152.825V272.856H194.238V340.789H150.77V316.46H119.474V346.319L195.66 403.509V501.302H150.928V525H112.993V501.302H70V430.209H117.893V458.014H147.609V421.678L71.5806 364.329V272.856H114.89V249Z" fill="#E36C00"/>
<path d="M210.992 272.856H309.308L346.136 309.034V469.705L314.05 501.302H210.992V272.856ZM298.085 458.014V316.302H258.885V458.014H298.085Z" fill="#E36C00"/>
<path d="M365.262 272.856H503.251V501.302H365.262V272.856ZM413.313 458.014H455.358V316.302H413.313V458.014Z" fill="#E36C00"/>
<path d="M613.421 458.014V422.784H593.979V382.181H660.84V501.302H524.274V272.856H652.937V316.302H572.325V458.014H613.421Z" fill="#E36C00"/>
<path d="M762.475 458.014V501.302H682.969V458.014H698.775V316.144H682.969V272.856H762.475V316.144H746.668V458.014H762.475Z" fill="#E36C00"/>
<path d="M919.273 316.302H876.122V501.302H827.913V316.302H783.181V272.856H919.273V316.302Z" fill="#E36C00"/>
<path d="M938.715 272.856H1049.68V316.302H986.134V360.38H1046.51V403.035H986.766V458.014H1051.26V501.302H938.715V272.856Z" fill="#E36C00"/>
<path d="M1157.95 501.302L1129.5 418.676H1116.85V501.302H1068.96V305.085L1103.73 272.856H1201.57V418.044H1175.65L1206 501.302H1157.95ZM1153.68 375.862V316.302H1116.85V375.862H1153.68Z" fill="#E36C00"/>
<rect y="662.51" width="1276" height="439.49" rx="50" fill="#401B16"/>
<rect x="8" y="638" width="1260" height="423.49" rx="42" fill="#FDEBAF" stroke="#401B16" stroke-width="16"/>
<path d="M126.258 722H119.133V693.477L124.594 688.109H139.406V722H132.305V710.867H126.258V722ZM132.305 704.422V694.555H126.258V704.422H132.305ZM173.719 694.555H167.32V722H160.172V694.555H153.539V688.109H173.719V694.555ZM176.602 688.109H193.055V694.555H183.633V701.094H192.586V707.422H183.727V715.578H193.289V722H176.602V688.109ZM209.109 722L204.891 709.742H203.016V722H195.914V692.891L201.07 688.109H215.578V709.648H211.734L216.234 722H209.109ZM208.477 703.391V694.555H203.016V703.391H208.477ZM232.078 722L227.859 709.742H225.984V722H218.883V692.891L224.039 688.109H238.547V709.648H234.703L239.203 722H232.078ZM231.445 703.391V694.555H225.984V703.391H231.445ZM241.852 688.109H258.305V694.555H248.883V701.094H257.836V707.422H248.977V715.578H258.539V722H241.852V688.109ZM279.797 722H261.164V711.453H268.266V715.578H272.672V710.188L261.398 701.68V688.109H279.586V698.188H273.141V694.578H268.5V699.008L279.797 707.492V722ZM303.047 694.555H296.648V722H289.5V694.555H282.867V688.109H303.047V694.555ZM319.125 722L314.906 709.742H313.031V722H305.93V692.891L311.086 688.109H325.594V709.648H321.75L326.25 722H319.125ZM318.492 703.391V694.555H313.031V703.391H318.492ZM336 698.516V722H328.898V698.516H336ZM336 688.109V696.453H328.898V688.109H336ZM345.773 722H338.648V693.477L344.109 688.109H358.922V722H351.82V710.867H345.773V722ZM351.82 704.422V694.555H345.773V704.422H351.82ZM361.617 722V688.109H368.719V715.578H378.656V722H361.617ZM399.797 722H392.695V692.891L397.828 688.109H412.359V713.398H399.797V722ZM405.258 706.906V694.555H399.797V706.906H405.258ZM415.383 722V688.109H422.484V715.578H432.422V722H415.383ZM442.617 722H435.492V693.477L440.953 688.109H455.766V722H448.664V710.867H442.617V722ZM448.664 704.422V694.555H442.617V704.422H448.664ZM472.383 707.562V688.109H479.086V722H472.055L465.117 702.547V722H458.461V688.109H465.492L472.383 707.562ZM482.414 688.109H498.867V694.555H489.445V701.094H498.398V707.422H489.539V715.578H499.102V722H482.414V688.109ZM521.906 694.555H515.508V722H508.359V694.555H501.727V688.109H521.906V694.555ZM542.859 702.031H548.953V688.109H556.055V722H548.953V708.453H542.859V722H535.758V688.109H542.859V702.031ZM566.227 722H559.102V693.477L564.562 688.109H579.375V722H572.273V710.867H566.227V722ZM572.273 704.422V694.555H566.227V704.422H572.273ZM600.703 722H582.07V711.453H589.172V715.578H593.578V710.188L582.305 701.68V688.109H600.492V698.188H594.047V694.578H589.406V699.008L600.703 707.492V722ZM635.32 707.891V722H619.43L614.742 717.312V688.109H629.273L634.078 692.586V701.914L630.75 704.586L635.32 707.891ZM628.195 715.578V707.891H621.844V715.578H628.195ZM627.047 701.562V694.555H621.844V701.562H627.047ZM638.32 688.109H654.773V694.555H645.352V701.094H654.305V707.422H645.445V715.578H655.008V722H638.32V688.109ZM657.633 688.109H674.086V694.555H664.664V701.094H673.617V707.422H664.758V715.578H674.32V722H657.633V688.109ZM690.867 707.562V688.109H697.57V722H690.539L683.602 702.547V722H676.945V688.109H683.977L690.867 707.562ZM711.867 688.109H726.445L731.906 693.477V717.312L727.148 722H711.867V688.109ZM724.781 715.578V694.555H718.969V715.578H724.781ZM741.844 698.516V722H734.742V698.516H741.844ZM741.844 688.109V696.453H734.742V688.109H741.844ZM763.125 722H744.492V711.453H751.594V715.578H756V710.188L744.727 701.68V688.109H762.914V698.188H756.469V694.578H751.828V699.008L763.125 707.492V722ZM779.039 715.578V711.453H786.164V717.312L781.477 722H766.195V692.773L771.258 688.109H786.164V700.906H779.039V694.555H773.32V715.578H779.039ZM789.023 688.109H809.484V722H789.023V688.109ZM796.148 715.578H802.383V694.555H796.148V715.578ZM825.82 688.109H833.109L828.609 722H817.359L812.766 688.109H820.172L822.984 714.148L825.82 688.109ZM835.945 688.109H852.398V694.555H842.977V701.094H851.93V707.422H843.07V715.578H852.633V722H835.945V688.109ZM868.453 722L864.234 709.742H862.359V722H855.258V692.891L860.414 688.109H874.922V709.648H871.078L875.578 722H868.453ZM867.82 703.391V694.555H862.359V703.391H867.82ZM878.227 688.109H894.68V694.555H885.258V701.094H894.211V707.422H885.352V715.578H894.914V722H878.227V688.109ZM897.539 688.109H912.117L917.578 693.477V717.312L912.82 722H897.539V688.109ZM910.453 715.578V694.555H904.641V715.578H910.453ZM938.508 722H931.383V693.477L936.844 688.109H951.656V722H944.555V710.867H938.508V722ZM944.555 704.422V694.555H938.508V704.422H944.555ZM974.531 694.555H968.133V722H960.984V694.555H954.352V688.109H974.531V694.555ZM1008.56 694.555H1002.16V722H995.016V694.555H988.383V688.109H1008.56V694.555ZM1018.55 702.031H1024.64V688.109H1031.74V722H1024.64V708.453H1018.55V722H1011.45V688.109H1018.55V702.031ZM1034.79 688.109H1051.24V694.555H1041.82V701.094H1050.77V707.422H1041.91V715.578H1051.48V722H1034.79V688.109ZM1065.07 688.109H1081.52V694.555H1072.1V701.094H1081.05V707.422H1072.2V715.578H1081.76V722H1065.07V688.109ZM1098.3 707.562V688.109H1105.01V722H1097.98L1091.04 702.547V722H1084.38V688.109H1091.41L1098.3 707.562ZM1108.34 688.109H1122.91L1128.38 693.477V717.312L1123.62 722H1108.34V688.109ZM1121.25 715.578V694.555H1115.44V715.578H1121.25ZM114.961 738.109H135.422V772H114.961V738.109ZM122.086 765.578H128.32V744.555H122.086V765.578ZM145.641 757.422V772H138.539V742.797L143.227 738.109H154.734V744.555H145.641V751.094H154.031V757.422H145.641ZM188.859 744.555H182.461V772H175.312V744.555H168.68V738.109H188.859V744.555ZM198.844 752.031H204.938V738.109H212.039V772H204.938V758.453H198.844V772H191.742V738.109H198.844V752.031ZM215.086 738.109H231.539V744.555H222.117V751.094H231.07V757.422H222.211V765.578H231.773V772H215.086V738.109ZM252.492 772H245.367V743.477L250.828 738.109H265.641V772H258.539V760.867H252.492V772ZM258.539 754.422V744.555H252.492V754.422H258.539ZM282.727 757.562V738.109H289.43V772H282.398L275.461 752.547V772H268.805V738.109H275.836L282.727 757.562ZM292.758 738.109H307.336L312.797 743.477V767.312L308.039 772H292.758V738.109ZM305.672 765.578V744.555H299.859V765.578H305.672ZM328.828 772L324.609 759.742H322.734V772H315.633V742.891L320.789 738.109H335.297V759.648H331.453L335.953 772H328.828ZM328.195 753.391V744.555H322.734V753.391H328.195ZM338.602 738.109H359.062V772H338.602V738.109ZM345.727 765.578H351.961V744.555H345.727V765.578ZM379.758 738.109H387.961V772H381.398V750.906L376.125 772H374.016L368.742 750.906V772H362.18V738.109H370.383L375.07 754.984L379.758 738.109ZM391.477 738.109H407.93V744.555H398.508V751.094H407.461V757.422H398.602V765.578H408.164V772H391.477V738.109ZM410.789 738.109H425.367L430.828 743.477V767.312L426.07 772H410.789V738.109ZM423.703 765.578V744.555H417.891V765.578H423.703ZM440.789 772H433.664V743.477L439.125 738.109H453.938V772H446.836V760.867H440.789V772ZM446.836 754.422V744.555H440.789V754.422H446.836ZM480.82 765.578V760.352H477.938V754.328H487.852V772H467.602V738.109H486.68V744.555H474.727V765.578H480.82ZM498.258 772H491.133V743.477L496.594 738.109H511.406V772H504.305V760.867H498.258V772ZM504.305 754.422V744.555H498.258V754.422H504.305ZM514.102 772V738.109H521.203V765.578H531.141V772H514.102ZM541.336 772H534.211V743.477L539.672 738.109H554.484V772H547.383V760.867H541.336V772ZM547.383 754.422V744.555H541.336V754.422H547.383ZM565.312 772H557.648L563.836 754.211L558.727 738.109H566.016L568.992 748.117L572.016 738.109H579.305L574.148 754.211L580.336 772H572.672L568.992 761.477L565.312 772ZM597.516 738.109H604.898L593.461 772H586.055L590.438 759.039L583.336 738.109H590.672L593.953 748.609L597.516 738.109ZM607.57 772V764.383H614.742V772H607.57ZM648.469 744.555H642.07V772H634.922V744.555H628.289V738.109H648.469V744.555ZM658.453 752.031H664.547V738.109H671.648V772H664.547V758.453H658.453V772H651.352V738.109H658.453V752.031ZM681.797 748.516V772H674.695V748.516H681.797ZM681.797 738.109V746.453H674.695V738.109H681.797ZM703.078 772H684.445V761.453H691.547V765.578H695.953V760.188L684.68 751.68V738.109H702.867V748.188H696.422V744.578H691.781V749.008L703.078 757.492V772ZM724.219 772H717.117V742.891L722.25 738.109H736.781V763.398H724.219V772ZM729.68 756.906V744.555H724.219V756.906H729.68ZM739.805 772V738.109H746.906V765.578H756.844V772H739.805ZM767.039 772H759.914V743.477L765.375 738.109H780.188V772H773.086V760.867H767.039V772ZM773.086 754.422V744.555H767.039V754.422H773.086ZM796.805 757.562V738.109H803.508V772H796.477L789.539 752.547V772H782.883V738.109H789.914L796.805 757.562ZM806.836 738.109H823.289V744.555H813.867V751.094H822.82V757.422H813.961V765.578H823.523V772H806.836V738.109ZM846.328 744.555H839.93V772H832.781V744.555H826.148V738.109H846.328V744.555ZM867.281 748.516V772H860.18V748.516H867.281ZM867.281 738.109V746.453H860.18V738.109H867.281ZM888.562 772H869.93V761.453H877.031V765.578H881.438V760.188L870.164 751.68V738.109H888.352V748.188H881.906V744.578H877.266V749.008L888.562 757.492V772ZM909.703 748.516V772H902.602V748.516H909.703ZM909.703 738.109V746.453H902.602V738.109H909.703ZM926.273 757.562V738.109H932.977V772H925.945L919.008 752.547V772H912.352V738.109H919.383L926.273 757.562ZM943.406 752.031H949.5V738.109H956.602V772H949.5V758.453H943.406V772H936.305V738.109H943.406V752.031ZM966.773 772H959.648V743.477L965.109 738.109H979.922V772H972.82V760.867H966.773V772ZM972.82 754.422V744.555H966.773V754.422H972.82ZM1003.2 757.891V772H987.305L982.617 767.312V738.109H997.148L1001.95 742.586V751.914L998.625 754.586L1003.2 757.891ZM996.07 765.578V757.891H989.719V765.578H996.07ZM994.922 751.562V744.555H989.719V751.562H994.922ZM1013.3 748.516V772H1006.2V748.516H1013.3ZM1013.3 738.109V746.453H1006.2V738.109H1013.3ZM1036.12 744.555H1029.73V772H1022.58V744.555H1015.95V738.109H1036.12V744.555ZM1046.13 772H1039.01V743.477L1044.47 738.109H1059.28V772H1052.18V760.867H1046.13V772ZM1052.18 754.422V744.555H1046.13V754.422H1052.18ZM1082.55 757.891V772H1066.66L1061.98 767.312V738.109H1076.51L1081.31 742.586V751.914L1077.98 754.586L1082.55 757.891ZM1075.43 765.578V757.891H1069.08V765.578H1075.43ZM1074.28 751.562V744.555H1069.08V751.562H1074.28ZM1085.55 772V738.109H1092.66V765.578H1102.59V772H1085.55ZM1105.66 738.109H1122.12V744.555H1112.7V751.094H1121.65V757.422H1112.79V765.578H1122.35V772H1105.66V738.109ZM1125.26 772V764.383H1132.43V772L1128.42 778.117L1125.4 776.031L1128.02 772H1125.26ZM159.211 807.422V822H152.109V792.797L156.797 788.109H168.305V794.555H159.211V801.094H167.602V807.422H159.211ZM171.281 788.109H187.734V794.555H178.312V801.094H187.266V807.422H178.406V815.578H187.969V822H171.281V788.109ZM197.719 822H190.594V793.477L196.055 788.109H210.867V822H203.766V810.867H197.719V822ZM203.766 804.422V794.555H197.719V804.422H203.766ZM233.742 794.555H227.344V822H220.195V794.555H213.562V788.109H233.742V794.555ZM256.664 822H236.625V788.109H243.727V815.578H249.539V788.109H256.664V822ZM273.023 822L268.805 809.742H266.93V822H259.828V792.891L264.984 788.109H279.492V809.648H275.648L280.148 822H273.023ZM272.391 803.391V794.555H266.93V803.391H272.391ZM289.898 798.516V822H282.797V798.516H289.898ZM289.898 788.109V796.453H282.797V788.109H289.898ZM306.469 807.562V788.109H313.172V822H306.141L299.203 802.547V822H292.547V788.109H299.578L306.469 807.562ZM329.719 815.578V810.352H326.836V804.328H336.75V822H316.5V788.109H335.578V794.555H323.625V815.578H329.719ZM364.195 822L359.977 809.742H358.102V822H351V792.891L356.156 788.109H370.664V809.648H366.82L371.32 822H364.195ZM363.562 803.391V794.555H358.102V803.391H363.562ZM394.008 822H373.969V788.109H381.07V815.578H386.883V788.109H394.008V822ZM411.094 807.562V788.109H417.797V822H410.766L403.828 802.547V822H397.172V788.109H404.203L411.094 807.562ZM435.047 807.562V788.109H441.75V822H434.719L427.781 802.547V822H421.125V788.109H428.156L435.047 807.562ZM452.18 798.516V822H445.078V798.516H452.18ZM452.18 788.109V796.453H445.078V788.109H452.18ZM468.75 807.562V788.109H475.453V822H468.422L461.484 802.547V822H454.828V788.109H461.859L468.75 807.562ZM492 815.578V810.352H489.117V804.328H499.031V822H478.781V788.109H497.859V794.555H485.906V815.578H492ZM525.797 822H519.328L513.492 788.109H520.406L523.453 808.312L527.086 788.109H532.008L535.641 808.312L538.688 788.109H545.602L539.766 822H533.297L529.547 801L525.797 822ZM555.844 822H548.719V793.477L554.18 788.109H568.992V822H561.891V810.867H555.844V822ZM561.891 804.422V794.555H555.844V804.422H561.891ZM591.867 794.555H585.469V822H578.32V794.555H571.688V788.109H591.867V794.555ZM594.75 788.109H611.203V794.555H601.781V801.094H610.734V807.422H601.875V815.578H611.438V822H594.75V788.109ZM627.258 822L623.039 809.742H621.164V822H614.062V792.891L619.219 788.109H633.727V809.648H629.883L634.383 822H627.258ZM626.625 803.391V794.555H621.164V803.391H626.625ZM655.125 822H648V793.477L653.461 788.109H668.273V822H661.172V810.867H655.125V822ZM661.172 804.422V794.555H655.125V804.422H661.172ZM684.891 807.562V788.109H691.594V822H684.562L677.625 802.547V822H670.969V788.109H678L684.891 807.562ZM694.922 788.109H709.5L714.961 793.477V817.312L710.203 822H694.922V788.109ZM707.836 815.578V794.555H702.023V815.578H707.836ZM735.891 822H728.766V793.477L734.227 788.109H749.039V822H741.938V810.867H735.891V822ZM741.938 804.422V794.555H735.891V804.422H741.938ZM775.219 822H768.75L762.914 788.109H769.828L772.875 808.312L776.508 788.109H781.43L785.062 808.312L788.109 788.109H795.023L789.188 822H782.719L778.969 801L775.219 822ZM798.141 788.109H814.594V794.555H805.172V801.094H814.125V807.422H805.266V815.578H814.828V822H798.141V788.109ZM817.453 822V788.109H824.555V815.578H834.492V822H817.453ZM837.562 822V788.109H844.664V815.578H854.602V822H837.562ZM857.672 807.703V802.781H867.727V807.703H857.672ZM870.516 788.109H886.969V794.555H877.547V801.094H886.5V807.422H877.641V815.578H887.203V822H870.516V788.109ZM908.461 822H889.828V811.453H896.93V815.578H901.336V810.188L890.062 801.68V788.109H908.25V798.188H901.805V794.578H897.164V799.008L908.461 807.492V822ZM931.711 794.555H925.312V822H918.164V794.555H911.531V788.109H931.711V794.555ZM941.719 822H934.594V793.477L940.055 788.109H954.867V822H947.766V810.867H941.719V822ZM947.766 804.422V794.555H941.719V804.422H947.766ZM978.141 807.891V822H962.25L957.562 817.312V788.109H972.094L976.898 792.586V801.914L973.57 804.586L978.141 807.891ZM971.016 815.578V807.891H964.664V815.578H971.016ZM969.867 801.562V794.555H964.664V801.562H969.867ZM981.141 822V788.109H988.242V815.578H998.18V822H981.141ZM1008.35 798.516V822H1001.25V798.516H1008.35ZM1008.35 788.109V796.453H1001.25V788.109H1008.35ZM1029.63 822H1011V811.453H1018.1V815.578H1022.51V810.188L1011.23 801.68V788.109H1029.42V798.188H1022.98V794.578H1018.34V799.008L1029.63 807.492V822ZM1039.8 802.031H1045.9V788.109H1053V822H1045.9V808.453H1039.8V822H1032.7V788.109H1039.8V802.031ZM1056.05 788.109H1072.5V794.555H1063.08V801.094H1072.03V807.422H1063.17V815.578H1072.73V822H1056.05V788.109ZM1075.36 788.109H1089.94L1095.4 793.477V817.312L1090.64 822H1075.36V788.109ZM1088.27 815.578V794.555H1082.46V815.578H1088.27ZM145.266 838.109H161.719V844.555H152.297V851.094H161.25V857.422H152.391V865.578H161.953V872H145.266V838.109ZM177.422 865.578V861.453H184.547V867.312L179.859 872H164.578V842.773L169.641 838.109H184.547V850.906H177.422V844.555H171.703V865.578H177.422ZM187.406 838.109H207.867V872H187.406V838.109ZM194.531 865.578H200.766V844.555H194.531V865.578ZM229.617 872H210.984V861.453H218.086V865.578H222.492V860.188L211.219 851.68V838.109H229.406V848.188H222.961V844.578H218.32V849.008L229.617 857.492V872ZM247.336 838.109H254.719L243.281 872H235.875L240.258 859.039L233.156 838.109H240.492L243.773 848.609L247.336 838.109ZM276.023 872H257.391V861.453H264.492V865.578H268.898V860.188L257.625 851.68V838.109H275.812V848.188H269.367V844.578H264.727V849.008L276.023 857.492V872ZM299.273 844.555H292.875V872H285.727V844.555H279.094V838.109H299.273V844.555ZM302.156 838.109H318.609V844.555H309.188V851.094H318.141V857.422H309.281V865.578H318.844V872H302.156V838.109ZM339.047 838.109H347.25V872H340.688V850.906L335.414 872H333.305L328.031 850.906V872H321.469V838.109H329.672L334.359 854.984L339.047 838.109ZM351.047 872V864.383H358.219V872L354.211 878.117L351.188 876.031L353.812 872H351.047ZM384.656 872H378.188L372.352 838.109H379.266L382.312 858.312L385.945 838.109H390.867L394.5 858.312L397.547 838.109H404.461L398.625 872H392.156L388.406 851L384.656 872ZM414.68 852.031H420.773V838.109H427.875V872H420.773V858.453H414.68V872H407.578V838.109H414.68V852.031ZM438.023 848.516V872H430.922V848.516H438.023ZM438.023 838.109V846.453H430.922V838.109H438.023ZM453.516 865.578V861.453H460.641V867.312L455.953 872H440.672V842.773L445.734 838.109H460.641V850.906H453.516V844.555H447.797V865.578H453.516ZM470.602 852.031H476.695V838.109H483.797V872H476.695V858.453H470.602V872H463.5V838.109H470.602V852.031ZM504.914 872H497.812V842.891L502.945 838.109H517.477V863.398H504.914V872ZM510.375 856.906V844.555H504.914V856.906H510.375ZM533.695 872L529.477 859.742H527.602V872H520.5V842.891L525.656 838.109H540.164V859.648H536.32L540.82 872H533.695ZM533.062 853.391V844.555H527.602V853.391H533.062ZM543.469 838.109H563.93V872H543.469V838.109ZM550.594 865.578H556.828V844.555H550.594V865.578ZM580.266 838.109H587.555L583.055 872H571.805L567.211 838.109H574.617L577.43 864.148L580.266 838.109ZM597.492 848.516V872H590.391V848.516H597.492ZM597.492 838.109V846.453H590.391V838.109H597.492ZM600.141 838.109H614.719L620.18 843.477V867.312L615.422 872H600.141V838.109ZM613.055 865.578V844.555H607.242V865.578H613.055ZM623.016 838.109H639.469V844.555H630.047V851.094H639V857.422H630.141V865.578H639.703V872H623.016V838.109ZM660.961 872H642.328V861.453H649.43V865.578H653.836V860.188L642.562 851.68V838.109H660.75V848.188H654.305V844.578H649.664V849.008L660.961 857.492V872ZM682.102 848.516V872H675V848.516H682.102ZM682.102 838.109V846.453H675V838.109H682.102ZM704.93 844.555H698.531V872H691.383V844.555H684.75V838.109H704.93V844.555ZM726.445 872H707.812V861.453H714.914V865.578H719.32V860.188L708.047 851.68V838.109H726.234V848.188H719.789V844.578H715.148V849.008L726.445 857.492V872ZM747.586 848.516V872H740.484V848.516H747.586ZM747.586 838.109V846.453H740.484V838.109H747.586ZM764.156 857.562V838.109H770.859V872H763.828L756.891 852.547V872H750.234V838.109H757.266L764.156 857.562ZM781.289 852.031H787.383V838.109H794.484V872H787.383V858.453H781.289V872H774.188V838.109H781.289V852.031ZM804.656 872H797.531V843.477L802.992 838.109H817.805V872H810.703V860.867H804.656V872ZM810.703 854.422V844.555H804.656V854.422H810.703ZM841.078 857.891V872H825.188L820.5 867.312V838.109H835.031L839.836 842.586V851.914L836.508 854.586L841.078 857.891ZM833.953 865.578V857.891H827.602V865.578H833.953ZM832.805 851.562V844.555H827.602V851.562H832.805ZM851.18 848.516V872H844.078V848.516H851.18ZM851.18 838.109V846.453H844.078V838.109H851.18ZM874.008 844.555H867.609V872H860.461V844.555H853.828V838.109H874.008V844.555ZM884.016 872H876.891V843.477L882.352 838.109H897.164V872H890.062V860.867H884.016V872ZM890.062 854.422V844.555H884.016V854.422H890.062ZM913.781 857.562V838.109H920.484V872H913.453L906.516 852.547V872H899.859V838.109H906.891L913.781 857.562ZM943.992 844.555H937.594V872H930.445V844.555H923.812V838.109H943.992V844.555ZM965.508 872H946.875V861.453H953.977V865.578H958.383V860.188L947.109 851.68V838.109H965.297V848.188H958.852V844.578H954.211V849.008L965.508 857.492V872ZM992.062 872H985.594L979.758 838.109H986.672L989.719 858.312L993.352 838.109H998.273L1001.91 858.312L1004.95 838.109H1011.87L1006.03 872H999.562L995.812 851L992.062 872ZM1022.09 848.516V872H1014.98V848.516H1022.09ZM1022.09 838.109V846.453H1014.98V838.109H1022.09ZM1044.91 844.555H1038.52V872H1031.37V844.555H1024.73V838.109H1044.91V844.555ZM1054.9 852.031H1060.99V838.109H1068.09V872H1060.99V858.453H1054.9V872H1047.8V838.109H1054.9V852.031ZM1089.23 872H1082.11V843.477L1087.57 838.109H1102.38V872H1095.28V860.867H1089.23V872ZM1095.28 854.422V844.555H1089.23V854.422H1095.28ZM445.359 922H438.258V892.891L443.391 888.109H457.922V913.398H445.359V922ZM450.82 906.906V894.555H445.359V906.906H450.82ZM474.141 922L469.922 909.742H468.047V922H460.945V892.891L466.102 888.109H480.609V909.648H476.766L481.266 922H474.141ZM473.508 903.391V894.555H468.047V903.391H473.508ZM483.914 888.109H504.375V922H483.914V888.109ZM491.039 915.578H497.273V894.555H491.039V915.578ZM526.125 922H507.492V911.453H514.594V915.578H519V910.188L507.727 901.68V888.109H525.914V898.188H519.469V894.578H514.828V899.008L526.125 907.492V922ZM536.297 922H529.195V892.891L534.328 888.109H548.859V913.398H536.297V922ZM541.758 906.906V894.555H536.297V906.906H541.758ZM551.883 888.109H568.336V894.555H558.914V901.094H567.867V907.422H559.008V915.578H568.57V922H551.883V888.109ZM584.391 922L580.172 909.742H578.297V922H571.195V892.891L576.352 888.109H590.859V909.648H587.016L591.516 922H584.391ZM583.758 903.391V894.555H578.297V903.391H583.758ZM594.164 888.109H614.625V922H594.164V888.109ZM601.289 915.578H607.523V894.555H601.289V915.578ZM637.781 922H617.742V888.109H624.844V915.578H630.656V888.109H637.781V922ZM659.578 922H640.945V911.453H648.047V915.578H652.453V910.188L641.18 901.68V888.109H659.367V898.188H652.922V894.578H648.281V899.008L659.578 907.492V922ZM680.719 898.516V922H673.617V898.516H680.719ZM680.719 888.109V896.453H673.617V888.109H680.719ZM697.289 907.562V888.109H703.992V922H696.961L690.023 902.547V922H683.367V888.109H690.398L697.289 907.562ZM720.164 915.578V911.453H727.289V917.312L722.602 922H707.32V892.773L712.383 888.109H727.289V900.906H720.164V894.555H714.445V915.578H720.164ZM730.148 888.109H750.609V922H730.148V888.109ZM737.273 915.578H743.508V894.555H737.273V915.578ZM771.305 888.109H779.508V922H772.945V900.906L767.672 922H765.562L760.289 900.906V922H753.727V888.109H761.93L766.617 904.984L771.305 888.109ZM783.023 888.109H799.477V894.555H790.055V901.094H799.008V907.422H790.148V915.578H799.711V922H783.023V888.109ZM802.336 922V914.383H809.508V922H802.336Z" fill="#401B16"/>
<path d="M160.195 989.578V984.352H157.312V978.328H167.227V996H146.977V962.109H166.055V968.555H154.102V989.578H160.195ZM170.508 962.109H186.961V968.555H177.539V975.094H186.492V981.422H177.633V989.578H187.195V996H170.508V962.109ZM210 968.555H203.602V996H196.453V968.555H189.82V962.109H210V968.555ZM230.953 972.516V996H223.852V972.516H230.953ZM230.953 962.109V970.453H223.852V962.109H230.953ZM247.523 981.562V962.109H254.227V996H247.195L240.258 976.547V996H233.602V962.109H240.633L247.523 981.562ZM257.836 996V988.383H265.008V996L261 1002.12L257.977 1000.03L260.602 996H257.836ZM291.445 996H284.977L279.141 962.109H286.055L289.102 982.312L292.734 962.109H297.656L301.289 982.312L304.336 962.109H311.25L305.414 996H298.945L295.195 975L291.445 996ZM314.367 962.109H330.82V968.555H321.398V975.094H330.352V981.422H321.492V989.578H331.055V996H314.367V962.109ZM357.164 996H350.695L344.859 962.109H351.773L354.82 982.312L358.453 962.109H363.375L367.008 982.312L370.055 962.109H376.969L371.133 996H364.664L360.914 975L357.164 996ZM387.188 972.516V996H380.086V972.516H387.188ZM387.188 962.109V970.453H380.086V962.109H387.188ZM389.836 996V962.109H396.938V989.578H406.875V996H389.836ZM409.945 996V962.109H417.047V989.578H426.984V996H409.945ZM454.219 996L450 983.742H448.125V996H441.023V966.891L446.18 962.109H460.688V983.648H456.844L461.344 996H454.219ZM453.586 977.391V968.555H448.125V977.391H453.586ZM463.992 962.109H480.445V968.555H471.023V975.094H479.977V981.422H471.117V989.578H480.68V996H463.992V962.109ZM490.43 996H483.305V967.477L488.766 962.109H503.578V996H496.477V984.867H490.43V996ZM496.477 978.422V968.555H490.43V978.422H496.477ZM519.117 989.578V985.453H526.242V991.312L521.555 996H506.273V966.773L511.336 962.109H526.242V974.906H519.117V968.555H513.398V989.578H519.117ZM536.203 976.031H542.297V962.109H549.398V996H542.297V982.453H536.203V996H529.102V962.109H536.203V976.031ZM563.414 962.109H577.992L583.453 967.477V991.312L578.695 996H563.414V962.109ZM576.328 989.578V968.555H570.516V989.578H576.328ZM586.289 962.109H606.75V996H586.289V962.109ZM593.414 989.578H599.648V968.555H593.414V989.578ZM623.086 989.578V984.352H620.203V978.328H630.117V996H609.867V962.109H628.945V968.555H616.992V989.578H623.086ZM640.5 972.516V996H633.398V972.516H640.5ZM640.5 962.109V970.453H633.398V962.109H640.5ZM663.328 968.555H656.93V996H649.781V968.555H643.148V962.109H663.328V968.555ZM666.211 962.109H682.664V968.555H673.242V975.094H682.195V981.422H673.336V989.578H682.898V996H666.211V962.109ZM698.719 996L694.5 983.742H692.625V996H685.523V966.891L690.68 962.109H705.188V983.648H701.344L705.844 996H698.719ZM698.086 977.391V968.555H692.625V977.391H698.086ZM726.562 972.516V996H719.461V972.516H726.562ZM726.562 962.109V970.453H719.461V962.109H726.562ZM743.133 981.562V962.109H749.836V996H742.805L735.867 976.547V996H729.211V962.109H736.242L743.133 981.562ZM771.258 996H764.133V967.477L769.594 962.109H784.406V996H777.305V984.867H771.258V996ZM777.305 978.422V968.555H771.258V978.422H777.305ZM805.172 981.422V996H798.07V966.797L802.758 962.109H814.266V968.555H805.172V975.094H813.562V981.422H805.172ZM817.242 962.109H833.695V968.555H824.273V975.094H833.227V981.422H824.367V989.578H833.93V996H817.242V962.109ZM849.07 996H842.602L836.766 962.109H843.68L846.727 982.312L850.359 962.109H855.281L858.914 982.312L861.961 962.109H868.875L863.039 996H856.57L852.82 975L849.07 996ZM882.961 996V962.109H890.062V989.578H900V996H882.961ZM910.172 972.516V996H903.07V972.516H910.172ZM910.172 962.109V970.453H903.07V962.109H910.172ZM926.039 989.578V984.352H923.156V978.328H933.07V996H912.82V962.109H931.898V968.555H919.945V989.578H926.039ZM943.453 976.031H949.547V962.109H956.648V996H949.547V982.453H943.453V996H936.352V962.109H943.453V976.031ZM979.875 968.555H973.477V996H966.328V968.555H959.695V962.109H979.875V968.555ZM997.406 962.109H1004.79L993.352 996H985.945L990.328 983.039L983.227 962.109H990.562L993.844 972.609L997.406 962.109ZM1007.46 962.109H1023.91V968.555H1014.49V975.094H1023.45V981.422H1014.59V989.578H1024.15V996H1007.46V962.109ZM1033.9 996H1026.77V967.477L1032.23 962.109H1047.05V996H1039.95V984.867H1033.9V996ZM1039.95 978.422V968.555H1033.9V978.422H1039.95ZM1062.94 996L1058.72 983.742H1056.84V996H1049.74V966.891L1054.9 962.109H1069.41V983.648H1065.56L1070.06 996H1062.94ZM1062.3 977.391V968.555H1056.84V977.391H1062.3ZM1091.34 996H1072.71V985.453H1079.81V989.578H1084.22V984.188L1072.95 975.68V962.109H1091.13V972.188H1084.69V968.578H1080.05V973.008L1091.34 981.492V996ZM1101.47 962.109V967.078L1099.92 986.25H1095.96L1094.41 967.078V962.109H1101.47ZM1094.74 996V989.414H1101.14V996H1094.74Z" fill="#401B16"/>
</svg>
